<svg xmlns="http://www.w3.org/2000/svg" viewBox="0 0 512 512">
  <defs>
    <linearGradient id="g1" x1="0%" y1="0%" x2="100%" y2="100%">
      <stop offset="0%" stop-color="#00a3ff"/>
      <stop offset="100%" stop-color="#f89f1b"/>
    </linearGradient>
  </defs>
  <rect width="512" height="512" rx="96" fill="#0e1118"/>
  <rect x="54" y="54" width="404" height="404" rx="64" fill="#171c26" stroke="#2c3447" stroke-width="10"/>
  <path d="M170 330h172v44H170z" fill="url(#g1)"/>
  <path d="M190 294c0-36 30-66 66-66h14v-64h42v64h12c34 0 62 28 62 62v12h-44v-12c0-10-8-18-18-18h-68c-12 0-22 10-22 22v10h-44z" fill="#e8edf7"/>
  <circle cx="144" cy="148" r="14" fill="#30d17b"/>
  <circle cx="192" cy="148" r="14" fill="#30d17b"/>
  <circle cx="240" cy="148" r="14" fill="#30d17b"/>
  <text x="256" y="396" text-anchor="middle" font-size="52" font-family="Segoe UI, Arial, sans-serif" font-weight="700" fill="#9da8bf">ARMOPS</text>
</svg>